<?xml version="1.0" encoding="utf-8"?><svg xmlns="http://www.w3.org/2000/svg" xmlns:xlink="http://www.w3.org/1999/xlink"><symbol viewBox="0 0 1110 1083" id="github" xmlns="http://www.w3.org/2000/svg"><path d="M538.5 1.7c-127 4.2-248.4 51.5-345 134.4-14.7 12.6-44.9 42.7-57.1 56.9C76.5 262.5 34.9 344.3 14.6 432c-23.1 100.1-18 205.7 14.5 303.3 14.5 43.6 38.2 91.9 64.3 131.2 62.2 93.4 153.9 167.7 258.3 208.9l19.1 7.6h18.4c20.2-.1 20.5-.2 25.5-7.5 4.5-6.6 4.6-7.9 4.4-65.4-.1-30-.3-54.7-.5-54.8-.1-.2-6.8.8-14.7 2.1-20.2 3.4-40.1 4.9-54.4 4.1-40.5-2.3-72-14.9-95.2-38.2-10.1-10.3-16.9-20.4-23-34.7-16.4-38.4-35.5-63.8-60-80-11.4-7.5-20.3-15.7-22.2-20.4-1.2-2.8-1.1-3.5.4-5.8.9-1.4 3.8-3.5 6.3-4.7 7.2-3.3 23.6-3 35.6.7 26.6 8.1 47.7 25.5 67.9 56.3 16.5 25 29.5 37.5 49.2 47.4 29.5 14.7 66.4 14.4 105.6-.8l6.7-2.7.7-5.3c.9-7.4 5-22.1 8.6-31.2 4.3-10.9 11-21.8 18.8-30.9l6.8-7.9-16.1-2.2c-36.9-5.2-67.2-12.8-94.1-23.8C258.8 742 213.2 673.8 204 565.5c-.8-8.6-1-24-.8-39.5.6-27.9 2.5-41.6 8.7-62.1 7.9-25.9 21.7-52.1 38.2-72.3 3.5-4.3 7.2-8.8 8.1-10 1.6-2 1.5-2.5-1.2-10.6-6.2-18.5-8.5-36.3-7.7-61.9.5-18.4 1.9-28.7 5.8-44.6 3-12 8.9-29.3 10.6-31 1.1-1.1 3.9-1.5 11.2-1.5 33.1 0 75.7 16.7 128.8 50.3l12.2 7.8 9.3-2.5C489 271 565.6 267.1 634 277.1c16.7 2.4 40.5 7.1 52.8 10.5l9.3 2.5 13.2-8.4c42.5-27.1 78.6-43 109.1-48.2 9.4-1.6 27.2-2 29.3-.7.7.5 3.3 7 5.8 14.5 14.1 42.8 15.2 86.1 3.4 123.4l-3 9.2 6.6 7.8c14.2 16.7 28.4 40.6 35.8 60.3 11.4 29.9 15.4 56.3 14.4 94-1.5 53-10.4 94.8-28.3 131.5-34.3 70.8-100.8 112-203.9 126.4-8.2 1.2-16.5 2.4-18.3 2.7l-3.4.5 6 6.3c14.7 15.3 24.2 36.3 30 66.1 1.5 8.1 1.7 17.8 1.7 100v91l2.8 5.7c1.5 3.1 4.2 6.9 5.8 8.3 3 2.5 3.2 2.5 21.3 2.5h18.2l13.9-5.4c98.3-37.8 183.5-102.4 246.8-187.1 52.3-70 87.6-152.5 102.1-238.5 4.7-27.8 4.8-29.1 4.4-99.5l-.4-67-2.7-15.5c-7.7-43.5-15.7-73.4-28.9-108.5-49.1-130.5-147-239-271.7-301.4C746.5 30.2 683.3 11.8 616 4.5c-15.6-1.6-52.4-3.6-63-3.3-3.6.1-10.1.3-14.5.5z"/><path d="M198.3 791.5c-5.6 4-.3 11.5 8 11.5 4.1 0 6-1.9 5.5-5.6-.6-5.2-9.3-9-13.5-5.9zm23.6 18.9c-4.9 2.4-2.9 12 3.1 15.1 8.1 4.2 13.7-1.3 9.6-9.4-2.7-5.2-8.5-7.8-12.7-5.7zm20.7 29.2c-2.7 2.6-2.9 5.9-.8 10.8 3.4 7.5 11 10.8 15.2 6.6 2.4-2.4 2.6-7 .3-11.7-2.9-6.2-11.1-9.4-14.7-5.7zm24.8 32.9c-5.8 8.9 11.1 24 18.6 16.5 6.3-6.3-2.3-19-12.7-19-3.4 0-4.6.5-5.9 2.5zm38.8 23.1c-1.6 1.1-2.2 2.5-2.2 5.4 0 3.1.6 4.4 3.5 6.8 7.7 6.9 20.5 4.7 20.5-3.4 0-2.7-3.4-7-7-8.9-3.8-2-12-1.9-14.8.1zm90.1 2.4c-5.8 3.5-6.9 8.5-2.8 12.5 2 2.1 3.4 2.5 8.2 2.5 9.3 0 15.3-5.1 13.7-11.6-1.3-5.2-12.8-7.3-19.1-3.4zm-42.3 4.7c-10 5.1-5.7 15.6 6.3 15.6 8.9 0 13.5-3.8 12.5-10.3-.8-5.7-12-8.8-18.8-5.3z"/></symbol><symbol viewBox="0 0 1140 823" id="gmail" xmlns="http://www.w3.org/2000/svg"><path d="M84 5.5c-20.3 3.7-35.8 12-50.5 27C19.4 46.9 10.3 66 8 86c-.8 6.7-1 105.7-.8 332l.3 322.5 2.3 8.4c9.7 36 38.5 63 73.8 69 10.3 1.8 953.5 1.1 964.9-.7 31.6-5 47.5-11 61.6-23.1 10.6-9.1 18.4-25.3 22-45.1 2.1-11.1 2.1-660.3.1-670-7.4-35.4-32.2-61.8-67.7-72.2l-8-2.3L574 4.3c-402.6-.1-483.7.1-490 1.2zm884 23.9c-2.3 2.1-397 292.7-398.4 293.2-.6.2-88.8-64.7-196.1-144.2C266.3 98.9 176.7 32.5 174.6 30.9l-4-2.9H570c340.7 0 399.2.2 398 1.4zM346.8 390.5c145.8 100.3 181.1 125.1 180 126C525.2 518.1 157 774 156.4 774c-.2 0-.4-115.9-.4-257.6V258.8l4.8 3.4c2.6 1.9 86.3 59.6 186 128.3zM982 517.1v257.1l-2.8-1.9c-1.6-1-85.4-59.2-186.2-129.3-162.6-113.1-183-127.6-181.4-128.7 1.1-.7 84.5-58.1 185.4-127.7s183.8-126.5 184.3-126.5c.4-.1.7 115.6.7 257zm-417.6 20.8c5.5 1 8.3.3 18.3-4.8l6.1-3 190.9 132.7 190.9 132.7-200.2.3c-110.1.1-290.8.1-401.4 0l-201.2-.3 190.7-132.7 190.8-132.6 5.1 3.4c2.8 1.8 7.3 3.8 10 4.3z"/></symbol><symbol viewBox="0 0 64 64" id="scroll" xmlns="http://www.w3.org/2000/svg"><path d="M37 18V8H27v10.06h10zm-8-8h6v6h-6zm8 28V20H27v18h-5.39L32 56l10.39-18zm-2-16v2h-6v-2zm0 4.06V28h-6v-1.94zM25.07 40H29V30h6v10h3.93L32 52z"/></symbol><symbol viewBox="0 0 100 100" id="telegram" xmlns="http://www.w3.org/2000/svg"><path d="M95 9.9c-1.3-1.1-3.4-1.2-7-.1-2.5.8-24.7 9.2-44.3 17.3-17.6 7.3-31.9 13.7-33.6 14.5-1.9.6-6 2.4-6.2 5.2-.1 1.8 1.4 3.4 4.3 4.7 3.1 1.6 16.8 6.2 19.7 7.1 1 3.4 6.9 23.3 7.2 24.5.4 1.8 1.6 2.8 2.2 3.2.1.1.3.3.5.4.3.2.7.3 1.2.3.7 0 1.5-.3 2.2-.8 3.7-3 10.1-9.7 11.9-11.6 7.9 6.2 16.5 13.1 17.3 13.9l.1.1c1.9 1.6 3.9 2.5 5.7 2.5.6 0 1.2-.1 1.8-.3 2.1-.7 3.6-2.7 4.1-5.4 0-.1.1-.5.3-1.2 3.4-14.8 6.1-27.8 8.3-38.7 2.1-10.7 3.8-21.2 4.8-26.8.2-1.4.4-2.5.5-3.2.3-2 .5-4.3-1-5.6zM30 58.3l47.7-31.6c.1-.1.3-.2.4-.3.1 0 .1-.1.2-.1s.1 0 .2-.1c-.1.1-.2.4-.4.6L66 38.1c-8.4 7.7-19.4 17.8-26.7 24.4v.1l-.1.1s0 .1-.1.1c0 .1 0 .1-.1.2v.2c-.5 5.6-1.4 15.2-1.8 19.5v-.1c-.4-1.2-6-20.3-7.2-24.3z"/></symbol></svg>